<?xml version="1.0" encoding="UTF-8"?>
<svg id="Layer_2" data-name="Layer 2" xmlns="http://www.w3.org/2000/svg" viewBox="0 0 461 461">
  <g id="Layer_1-2" data-name="Layer 1">
    <g>
      <path d="m230.5,455.5c-60.1,0-116.6-23.4-159.1-65.9C28.9,347.1,5.5,290.6,5.5,230.5S28.9,113.9,71.4,71.4C113.9,28.9,170.4,5.5,230.5,5.5s116.6,23.4,159.1,65.9c42.5,42.5,65.9,99,65.9,159.1s-23.4,116.6-65.9,159.1c-42.5,42.5-99,65.9-159.1,65.9Z" style="fill: #fff; stroke-width: 0px;"/>
      <path d="m230.5,11c29.64,0,58.38,5.8,85.44,17.24,26.14,11.05,49.61,26.88,69.77,47.05,20.16,20.16,35.99,43.64,47.05,69.77,11.44,27.05,17.24,55.8,17.24,85.44s-5.8,58.38-17.24,85.44c-11.05,26.14-26.88,49.61-47.05,69.77-20.16,20.16-43.64,35.99-69.77,47.05-27.05,11.44-55.8,17.24-85.44,17.24s-58.38-5.8-85.44-17.24c-26.14-11.05-49.61-26.88-69.77-47.05-20.16-20.16-35.99-43.64-47.05-69.77-11.44-27.05-17.24-55.8-17.24-85.44s5.8-58.38,17.24-85.44c11.05-26.14,26.88-49.61,47.05-69.77,20.16-20.16,43.64-35.99,69.77-47.05,27.05-11.44,55.8-17.24,85.44-17.24m0-11C103.2,0,0,103.2,0,230.5s103.2,230.5,230.5,230.5,230.5-103.2,230.5-230.5S357.8,0,230.5,0h0Z" style="stroke-width: 0px;"/>
    </g>
    <g>
      <path d="m124.06,51.34h61.87c20.87,0,36.53,5.6,46.98,16.8,10.44,11.21,15.66,27.63,15.66,49.27v26.35c0,21.64-5.22,38.07-15.66,49.27-10.44,11.21-26.1,16.8-46.98,16.8h-19.86v108.85h-42.01V51.34Zm61.87,120.31c6.88,0,12.03-1.91,15.47-5.73,3.44-3.82,5.16-10.31,5.16-19.48v-31.7c0-9.17-1.72-15.66-5.16-19.48-3.44-3.82-8.59-5.73-15.47-5.73h-19.86v82.11h19.86Z" style="stroke-width: 0px;"/>
      <path d="m207.08,142.31h63.4c21.64,0,37.43,5.03,47.36,15.09,9.93,10.06,14.9,25.53,14.9,46.4v10.69c0,13.75-2.23,24.96-6.68,33.61-4.46,8.66-11.27,14.9-20.43,18.71v.76c20.88,7.13,31.32,25.72,31.32,55.76v22.92c0,20.62-5.41,36.35-16.23,47.17-10.83,10.83-26.68,16.23-47.55,16.23h-66.07V142.31Zm58.43,108.85c8.4,0,14.7-2.16,18.91-6.49,4.2-4.33,6.3-11.58,6.3-21.77v-14.9c0-9.67-1.72-16.67-5.16-21.01-3.44-4.33-8.85-6.49-16.23-6.49h-20.24v70.66h16.42Zm7.64,120.31c7.38,0,12.85-1.97,16.42-5.92,3.56-3.94,5.35-10.75,5.35-20.43v-23.3c0-12.22-2.1-20.68-6.3-25.4-4.2-4.71-11.14-7.07-20.82-7.07h-18.71v82.11h24.06Z" style="stroke-width: 0px;"/>
    </g>
  </g>
</svg>